<svg width="24" height="24" viewBox="0 0 24 24" fill="none" xmlns="http://www.w3.org/2000/svg">
<mask id="mask0_1390_839" style="mask-type:alpha" maskUnits="userSpaceOnUse" x="0" y="0" width="24" height="24">
<rect width="24" height="24" fill="black"/>
</mask>
<g mask="url(#mask0_1390_839)">
<path d="M18.557 20.975C16.4792 20.975 14.4843 20.5873 12.5721 19.812C10.6593 19.0373 8.96714 17.9623 7.49569 16.587C6.02362 15.2123 4.85093 13.5873 3.97764 11.712C3.10371 9.83733 2.66675 7.8 2.66675 5.6C2.66675 4.86667 2.85941 4.25 3.24475 3.75C3.63071 3.25 4.17786 3 4.88619 3H7.08203C7.50703 3 7.83758 3.129 8.07369 3.387C8.3098 3.64567 8.47508 4.01667 8.56953 4.5C8.66397 5 8.77038 5.51667 8.88875 6.05C9.00649 6.58333 9.14406 7.05833 9.30147 7.475C9.44314 7.825 9.48658 8.154 9.4318 8.462C9.3764 8.77067 9.2149 9.06667 8.9473 9.35L7.10564 11.25C7.86119 12.4167 8.91204 13.5457 10.2582 14.637C11.6037 15.729 12.914 16.475 14.189 16.875L15.2751 14.55C15.4167 14.25 15.5978 14.046 15.8181 13.938C16.0385 13.8293 16.3455 13.7917 16.739 13.825C17.1482 13.8583 17.5537 13.875 17.9554 13.875C18.3565 13.875 18.8089 13.8583 19.3126 13.825C19.7848 13.7917 20.1824 13.925 20.5054 14.225C20.8278 14.525 21.0441 15.0083 21.1542 15.675L21.532 17.925C21.532 17.925 21.5478 18.0667 21.5792 18.35C21.5792 19.05 21.3079 19.6627 20.7651 20.188C20.2218 20.7127 19.4857 20.975 18.557 20.975Z" fill="black"/>
</g>
</svg>
