<svg width="24" height="24" viewBox="0 0 24 24" fill="none" xmlns="http://www.w3.org/2000/svg">
<mask id="mask0_1390_842" style="mask-type:alpha" maskUnits="userSpaceOnUse" x="0" y="0" width="24" height="24">
<rect width="24" height="24" fill="black"/>
</mask>
<g mask="url(#mask0_1390_842)">
<path d="M18.2334 21L12.2834 14.7C11.8112 15.1 11.2682 15.4167 10.6543 15.65C10.0404 15.8833 9.38715 16 8.69455 16C6.97881 16 5.52689 15.371 4.33878 14.113C3.15003 12.8543 2.55566 11.3167 2.55566 9.5C2.55566 7.68333 3.15003 6.14567 4.33878 4.887C5.52689 3.629 6.97881 3 8.69455 3C10.4103 3 11.8625 3.629 13.0513 4.887C14.2394 6.14567 14.8334 7.68333 14.8334 9.5C14.8334 10.2333 14.7233 10.925 14.5029 11.575C14.2825 12.225 13.9834 12.8 13.6057 13.3L19.5557 19.6L18.2334 21ZM8.69455 14C9.87511 14 10.8787 13.5627 11.7054 12.688C12.5315 11.8127 12.9446 10.75 12.9446 9.5C12.9446 8.25 12.5315 7.18733 11.7054 6.312C10.8787 5.43733 9.87511 5 8.69455 5C7.514 5 6.51037 5.43733 5.68366 6.312C4.85759 7.18733 4.44455 8.25 4.44455 9.5C4.44455 10.75 4.85759 11.8127 5.68366 12.688C6.51037 13.5627 7.514 14 8.69455 14Z" fill="black"/>
</g>
</svg>
