<svg width="21" height="21" viewBox="0 0 21 21" fill="none" xmlns="http://www.w3.org/2000/svg">
<path d="M15.0205 5.77266H15.0288M6.31362 2.04114H14.6059C16.8958 2.04114 18.752 3.89743 18.752 6.18728V14.4796C18.752 16.7694 16.8958 18.6257 14.6059 18.6257H6.31362C4.02377 18.6257 2.16748 16.7694 2.16748 14.4796V6.18728C2.16748 3.89743 4.02377 2.04114 6.31362 2.04114ZM13.7767 9.811C13.879 10.5011 13.7611 11.2059 13.4398 11.8252C13.1185 12.4445 12.6101 12.9467 11.9869 13.2603C11.3637 13.574 10.6575 13.6832 9.96868 13.5723C9.27987 13.4615 8.64355 13.1363 8.15023 12.643C7.6569 12.1496 7.33169 11.5133 7.22085 10.8245C7.11001 10.1357 7.21919 9.42947 7.53286 8.80629C7.84652 8.18311 8.3487 7.6747 8.96797 7.35337C9.58723 7.03205 10.2921 6.91417 10.9822 7.01651C11.6861 7.12089 12.3378 7.44892 12.8411 7.95213C13.3443 8.45534 13.6723 9.10705 13.7767 9.811Z" stroke="white" stroke-width="1.99015" stroke-linecap="round" stroke-linejoin="round"/>
</svg>
