<svg width="25" height="25" viewBox="0 0 25 25" fill="none" xmlns="http://www.w3.org/2000/svg">
<path d="M16.3319 8.35313C17.9154 8.35313 19.434 8.98216 20.5536 10.1018C21.6733 11.2215 22.3024 12.7401 22.3024 14.3236V21.2891H18.3221V14.3236C18.3221 13.7958 18.1124 13.2896 17.7392 12.9163C17.3659 12.5431 16.8597 12.3334 16.3319 12.3334C15.8041 12.3334 15.2979 12.5431 14.9247 12.9163C14.5514 13.2896 14.3418 13.7958 14.3418 14.3236V21.2891H10.3615V14.3236C10.3615 12.7401 10.9905 11.2215 12.1102 10.1018C13.2298 8.98216 14.7485 8.35313 16.3319 8.35313Z" fill="white"/>
<path d="M6.38117 9.34821H2.40088V21.2891H6.38117V9.34821Z" fill="white"/>
<path d="M4.39103 6.36298C5.49015 6.36298 6.38117 5.47197 6.38117 4.37284C6.38117 3.27371 5.49015 2.38269 4.39103 2.38269C3.2919 2.38269 2.40088 3.27371 2.40088 4.37284C2.40088 5.47197 3.2919 6.36298 4.39103 6.36298Z" fill="white"/>
</svg>
