<svg width="19" height="23" viewBox="0 0 19 23" fill="none" xmlns="http://www.w3.org/2000/svg">
<path d="M3.98807 21.8537C4.05329 22.3021 5.03425 22.457 5.19185 22.2504C6.56411 20.5603 7.14018 18.0793 7.63202 15.5087C8.72711 16.1745 9.31405 16.8674 10.7135 16.9761C15.8683 17.3755 18.7486 11.8295 18.0449 6.71C17.4199 2.17477 12.8955 -0.134967 8.07223 0.403065C4.25981 0.829687 0.458254 3.91658 0.300649 8.3241C0.202825 11.017 0.966396 13.036 3.52613 13.6039C4.63752 11.642 3.17016 11.2126 2.93918 9.79146C1.99898 3.97908 9.64285 0.0117692 13.6455 4.07147C16.4145 6.88391 14.5911 15.5278 10.1265 14.631C5.84945 13.7724 12.2216 6.88935 8.80591 5.53883C6.03151 4.44103 4.55871 8.89746 5.87391 11.1121C5.1837 14.5196 3.78427 17.7533 3.97992 21.8184" fill="white"/>
</svg>
