<svg width="18" height="19" viewBox="0 0 18 19" fill="none" xmlns="http://www.w3.org/2000/svg">
<path d="M13.1294 16.314C13.2554 16.4845 13.4548 16.5851 13.6668 16.5851C14.2135 16.5851 14.5288 15.9643 14.2063 15.5228L4.53023 2.27704C4.39616 2.09353 4.18255 1.98503 3.95528 1.98503C3.37092 1.98503 3.03537 2.6501 3.38259 3.12011L13.1294 16.314ZM14.0768 0.588081C14.2668 0.363156 14.5463 0.233398 14.8407 0.233398H15.2045C16.0556 0.233398 16.5176 1.22875 15.9684 1.87881L11.3523 7.34196C11.0545 7.69436 11.0365 8.20474 11.3086 8.57728L17.3476 16.8435C17.8303 17.5042 17.3584 18.4334 16.5401 18.4334H13.0139C12.6966 18.4334 12.398 18.2827 12.2095 18.0274L8.5623 13.0883C8.17876 12.5688 7.41085 12.5436 6.99408 13.0368L2.73287 18.0789C2.54286 18.3037 2.26345 18.4334 1.96909 18.4334H1.60247C0.751489 18.4334 0.289402 17.4382 0.838563 16.7881L5.90504 10.7906C6.20402 10.4367 6.22074 9.92374 5.94545 9.55109L0.239721 1.82759C-0.247941 1.16747 0.223329 0.233398 1.04404 0.233398H4.7072C5.02641 0.233398 5.32644 0.385789 5.51472 0.643554L8.71293 5.02202C9.09509 5.54521 9.86627 5.57243 10.2844 5.0775L14.0768 0.588081Z" fill="white"/>
</svg>
