<svg width="19" height="25" viewBox="0 0 19 25" fill="none" xmlns="http://www.w3.org/2000/svg">
<path d="M10.3196 10.1707C10.2943 10.6653 10.2654 11.2303 9.95646 11.6217C9.9319 11.6503 9.90588 11.6776 9.8785 11.7035C9.72689 11.8661 9.53366 11.9831 9.32024 12.0416L9.27903 12.0512C9.04791 12.1054 8.80611 12.089 8.58428 12.0043C8.55031 11.9934 8.51691 11.9806 8.48422 11.9662C8.03808 11.7515 7.7676 11.2572 7.53126 10.8253C7.50568 10.7786 7.48011 10.7318 7.45515 10.687L7.10432 10.0567C6.36475 8.72818 5.62522 7.39975 4.89735 6.06413C4.81439 5.91167 4.72932 5.76093 4.64436 5.61036C4.40281 5.18228 4.162 4.75552 3.97253 4.29507C3.95472 4.25179 3.93647 4.20806 3.91806 4.16394C3.71805 3.68465 3.49854 3.1586 3.60379 2.64337C3.80769 1.6481 5.0118 1.12875 5.8683 0.845809C6.13142 0.760831 6.40035 0.688987 6.67206 0.623205C6.94375 0.557423 7.21767 0.505961 7.4911 0.467685C8.38372 0.343064 9.69194 0.277035 10.3055 1.08043C10.6234 1.49725 10.6538 2.06626 10.6815 2.58523C10.6841 2.63349 10.6867 2.68132 10.6894 2.72856C10.7186 3.22681 10.6871 3.71732 10.6555 4.20949C10.6444 4.38204 10.6333 4.55483 10.6248 4.72819C10.5556 6.14898 10.4719 7.56929 10.3882 8.98938C10.368 9.33168 10.3478 9.67396 10.3278 10.0162C10.3249 10.0667 10.3223 10.1184 10.3196 10.1707Z" fill="white"/>
<path d="M18.3948 9.62229C18.0971 8.99216 17.6968 8.41689 17.2107 7.92037C17.1478 7.85733 17.0805 7.79901 17.0091 7.74587C16.9433 7.69605 16.8749 7.64974 16.8042 7.60714C16.7316 7.56696 16.6568 7.53074 16.5803 7.49861C16.4291 7.43875 16.267 7.41176 16.1048 7.4194C15.9496 7.4283 15.7981 7.47118 15.661 7.54507C15.453 7.64932 15.228 7.81689 14.9287 8.09748C14.9014 8.12486 14.8694 8.15456 14.8374 8.18429L14.8147 8.2054L14.7888 8.22969C14.5908 8.41741 14.3749 8.64017 14.1287 8.89435L13.9403 9.08857C13.4353 9.6032 12.938 10.1206 12.4438 10.6437L11.5595 11.5685C11.3976 11.7375 11.2501 11.92 11.1188 12.1141C11.0069 12.2781 10.9276 12.4626 10.8856 12.6573C10.8613 12.8065 10.8648 12.959 10.8961 13.1068L10.9006 13.1267C10.9705 13.433 11.1554 13.6999 11.4165 13.8712C11.6776 14.0426 11.9943 14.105 12.3002 14.0452C12.3487 14.0381 12.3863 14.0297 12.4092 14.024L17.1954 12.9089C17.5436 12.8282 17.8938 12.747 18.2063 12.5641C18.4302 12.4332 18.6432 12.3034 18.7892 12.0416C18.8672 11.8977 18.9145 11.7389 18.9279 11.5755C19.0002 10.9275 18.6648 10.1916 18.3948 9.62229Z" fill="white"/>
<path d="M6.22928 15.4607L7.31971 15.2065C7.34264 15.2012 7.38053 15.1925 7.4268 15.1774C7.72767 15.0957 7.9855 14.8995 8.14598 14.6299C8.30647 14.3604 8.3571 14.0386 8.28719 13.7323L8.28268 13.7125C8.24686 13.5657 8.18412 13.427 8.09769 13.3036C7.97548 13.1472 7.82426 13.0164 7.65247 12.9185C7.45025 12.8021 7.2386 12.7032 7.01979 12.623L5.82419 12.1828C5.15322 11.9313 4.48231 11.686 3.80507 11.4469C3.71758 11.4155 3.63276 11.3848 3.55046 11.3551C3.21958 11.2356 2.92938 11.1308 2.67046 11.0501C2.65049 11.0439 2.62986 11.0377 2.60921 11.0315C2.56673 11.0187 2.5242 11.0059 2.48735 10.9931C2.09648 10.8723 1.82184 10.8222 1.58941 10.8205C1.43417 10.8148 1.27954 10.8432 1.13624 10.9039C0.986924 10.9688 0.852816 11.0648 0.742693 11.1856C0.687915 11.2484 0.636412 11.3141 0.588395 11.3822C0.543337 11.4517 0.502015 11.5236 0.464607 11.5975C0.423418 11.6769 0.388019 11.7592 0.358697 11.8437C0.136793 12.5052 0.0262593 13.1995 0.0316846 13.8977C0.0356848 14.529 0.0524963 15.3391 0.396544 15.8884C0.479447 16.0293 0.5907 16.1512 0.723132 16.246C0.968234 16.4167 1.21591 16.4392 1.47359 16.4579C1.83434 16.484 2.18454 16.4019 2.53313 16.3202L6.22624 15.4596L6.22928 15.4607Z" fill="white"/>
<path d="M9.54738 16.3396C9.41402 16.1505 9.22478 16.0087 9.00669 15.9346C8.78861 15.8605 8.55285 15.8578 8.33311 15.9271C8.2815 15.9443 8.23119 15.9654 8.1826 15.99C8.10745 16.0286 8.03575 16.0737 7.96829 16.1248C7.77181 16.2716 7.60634 16.4623 7.45569 16.6536C7.44221 16.6708 7.42915 16.69 7.4159 16.7095C7.39156 16.7453 7.36657 16.7821 7.33714 16.8091L6.57878 17.8611C6.14894 18.4504 5.72504 19.0413 5.30469 19.6415C5.25 19.7188 5.19678 19.7936 5.14514 19.8663L5.14418 19.8676C4.93723 20.1588 4.75558 20.4143 4.60578 20.6458C4.59285 20.6656 4.57973 20.6863 4.56665 20.707C4.54382 20.743 4.52111 20.7788 4.49966 20.8097C4.27506 21.1601 4.14786 21.4159 4.08257 21.6437C4.03354 21.7951 4.01802 21.9555 4.03711 22.1135C4.05798 22.2782 4.11295 22.4364 4.19843 22.5782C4.24388 22.6493 4.29286 22.7181 4.34519 22.7842C4.39958 22.8478 4.45734 22.9084 4.51821 22.9657C4.58323 23.0282 4.65276 23.0858 4.72624 23.1381C5.24968 23.5053 5.8227 23.7692 6.42545 23.973C6.92703 24.1409 7.4484 24.2415 7.97609 24.2719C8.06586 24.2766 8.15584 24.2745 8.24534 24.2661C8.32828 24.2588 8.4108 24.2471 8.49255 24.2311C8.57424 24.2119 8.65484 24.1882 8.73404 24.1603C8.88814 24.1022 9.02845 24.0121 9.14592 23.8959C9.25712 23.7836 9.34271 23.6482 9.39671 23.499C9.48436 23.2787 9.54201 22.9989 9.57992 22.5835C9.58213 22.5443 9.58657 22.4998 9.59101 22.4552C9.59324 22.4328 9.59547 22.4104 9.59743 22.3887C9.62091 22.1181 9.63441 21.8104 9.64977 21.4602C9.65397 21.3645 9.65831 21.2655 9.66304 21.1633C9.70012 20.4312 9.7292 19.7024 9.7522 18.9715C9.7522 18.9715 9.80104 17.6727 9.80089 17.6719C9.81208 17.3726 9.80293 17.0409 9.72059 16.7429C9.68444 16.6 9.62598 16.464 9.54738 16.3396Z" fill="white"/>
<path d="M17.3711 17.808C17.7249 18.0238 17.9491 18.1983 18.1075 18.3734C18.2171 18.4876 18.3007 18.625 18.3522 18.7755C18.4045 18.9326 18.4235 19.099 18.4079 19.2641C18.3981 19.3481 18.384 19.4316 18.3656 19.5141C18.3442 19.5954 18.3188 19.6754 18.2893 19.7541C18.2579 19.839 18.2204 19.9216 18.177 20.0011C17.8651 20.563 17.4643 21.0537 17.0108 21.5038C16.6325 21.8767 16.2074 22.1978 15.746 22.4587C15.6675 22.5025 15.5859 22.5406 15.5018 22.5724C15.424 22.6026 15.3446 22.6286 15.2641 22.6504C15.1823 22.6694 15.0996 22.6838 15.0163 22.6937C14.8526 22.7101 14.6871 22.6916 14.531 22.6394C14.3824 22.5876 14.2467 22.5037 14.1336 22.3936C13.959 22.2326 13.7867 22.0081 13.5723 21.6515C13.5524 21.6157 13.5281 21.5758 13.504 21.5361C13.4933 21.5186 13.4827 21.5011 13.4725 21.4841C13.3325 21.2483 13.1849 20.9739 13.0168 20.6612C12.9735 20.5805 12.9287 20.4972 12.8823 20.4114C12.5319 19.7703 12.1903 19.1272 11.8526 18.4804L11.2459 17.3335C11.1062 17.0693 10.9712 16.7677 10.9157 16.4628C10.8879 16.3188 10.8827 16.1715 10.9 16.0259C10.9377 15.797 11.046 15.586 11.2094 15.4229C11.3729 15.2596 11.5832 15.1527 11.8104 15.1172C11.8644 15.1099 11.9186 15.1066 11.9731 15.1072C12.0573 15.1087 12.1413 15.1175 12.2241 15.1335C12.4643 15.1786 12.6958 15.2768 12.914 15.3821C12.9335 15.3916 12.9535 15.403 12.9739 15.4146C13.0114 15.4361 13.05 15.4581 13.0883 15.4694L14.2245 16.0772C14.8676 16.418 15.5047 16.7616 16.1413 17.1141C16.2318 17.1636 16.3194 17.2113 16.4042 17.2574C16.7078 17.4226 16.9748 17.5679 17.2051 17.7076C17.2237 17.7188 17.2428 17.7306 17.2619 17.7424C17.2996 17.7657 17.3373 17.789 17.3711 17.808Z" fill="white"/>
</svg>
