<svg width="25" height="25" viewBox="0 0 25 25" fill="none" xmlns="http://www.w3.org/2000/svg">
<g clip-path="url(#clip0_209_268)">
<path d="M22.5787 6.781C22.4605 6.30875 22.2198 5.87605 21.8808 5.52662C21.5419 5.17718 21.1167 4.92338 20.6483 4.79086C18.9368 4.37292 12.0907 4.37292 12.0907 4.37292C12.0907 4.37292 5.24456 4.37292 3.53303 4.83066C3.0646 4.96319 2.63943 5.21699 2.30048 5.56642C1.96153 5.91586 1.72079 6.34855 1.60259 6.82081C1.28936 8.55776 1.13614 10.3198 1.14486 12.0847C1.13369 13.863 1.28692 15.6385 1.60259 17.3885C1.7329 17.8461 1.97903 18.2623 2.3172 18.597C2.65536 18.9317 3.07412 19.1735 3.53303 19.299C5.24456 19.7568 12.0907 19.7568 12.0907 19.7568C12.0907 19.7568 18.9368 19.7568 20.6483 19.299C21.1167 19.1665 21.5419 18.9127 21.8808 18.5633C22.2198 18.2138 22.4605 17.7811 22.5787 17.3089C22.8896 15.585 23.0428 13.8364 23.0365 12.0847C23.0476 10.3065 22.8944 8.53104 22.5787 6.781Z" stroke="white" stroke-width="2.48768" stroke-linecap="round" stroke-linejoin="round"/>
<path d="M9.85175 15.3386L15.5734 12.0847L9.85175 8.83085V15.3386Z" stroke="white" stroke-width="2.48768" stroke-linecap="round" stroke-linejoin="round"/>
</g>
<defs>
<clipPath id="clip0_209_268">
<rect width="23.8818" height="23.8818" fill="white" transform="translate(0.149658 0.392578)"/>
</clipPath>
</defs>
</svg>
